<?xml version="1.0" encoding="UTF-8"?>
<svg version="1.1" xmlns="http://www.w3.org/2000/svg" width="283" height="283">
<path d="M0 0 C93.39 0 186.78 0 283 0 C283 93.39 283 186.78 283 283 C189.61 283 96.22 283 0 283 C0 189.61 0 96.22 0 0 Z " fill="#010101" transform="translate(0,0)"/>
<path d="M0 0 C2.2597069 1.78632957 4.02014435 3.40258019 5.9375 5.5 C6.46472656 6.05244385 6.99195313 6.6048877 7.53515625 7.17407227 C10.80672009 10.62643835 13.98634631 14.16027477 17.0703125 17.78125 C19.77558585 20.89176673 22.57544568 23.91189726 25.375 26.9375 C26.1803418 27.80846313 26.1803418 27.80846313 27.00195312 28.69702148 C29.46730405 31.38066494 29.46730405 31.38066494 32 34 C33.66617115 34.04063832 35.33388095 34.042721 37 34 C35.06327014 31.89511995 33.12564859 29.79107304 31.1875 27.6875 C30.36668945 26.79514648 30.36668945 26.79514648 29.52929688 25.88476562 C28.73168945 25.01948242 28.73168945 25.01948242 27.91796875 24.13671875 C27.43094482 23.60780029 26.9439209 23.07888184 26.44213867 22.53393555 C25.43978263 21.46777625 24.4008565 20.43531428 23.3359375 19.43164062 C22 18 22 18 21.70703125 15.95703125 C21.8046875 13.97135417 21.90234375 11.98567708 22 10 C24.85146414 9.10382556 26.40672797 8.73419712 29.1796875 9.9765625 C33.24854883 12.89577326 36.52076846 16.41735187 39.9375 20.0625 C40.62779297 20.77599609 41.31808594 21.48949219 42.02929688 22.22460938 C50.98832695 31.72712564 56.05030179 43.0145329 61.4375 54.75 C63.93981177 60.17540583 66.45768145 65.59322094 69 71 C69.30156006 71.64502472 69.60312012 72.29004944 69.91381836 72.95462036 C73.2816032 80.11366825 76.65088419 86.6527471 82.125 92.4375 C83.26342641 93.6962479 84.40143519 94.9553736 85.5390625 96.21484375 C86.11301758 96.83987793 86.68697266 97.46491211 87.27832031 98.10888672 C90.08005344 101.18634344 92.78579889 104.34544663 95.5 107.5 C98.884854 111.41799571 102.28167351 115.32436369 105.70703125 119.20703125 C106.3103125 119.89410156 106.91359375 120.58117187 107.53515625 121.2890625 C108.69912755 122.61419906 109.86696124 123.93595529 111.0390625 125.25390625 C115 129.7750756 115 129.7750756 115 132 C107.03728316 132.16260547 99.07526634 132.2867743 91.11129665 132.3626852 C87.41271017 132.39913023 83.71526412 132.44851226 80.01733398 132.52807617 C76.44458479 132.60446057 72.87292817 132.6460559 69.29942513 132.6641407 C67.94019438 132.67701791 66.58101965 132.70216628 65.22225761 132.7401104 C54.61832571 133.02429734 54.61832571 133.02429734 50.66497803 130.52207947 C48.88135718 128.77107591 47.44064203 127.03781831 46 125 C41.70325717 119.61990403 37.6729404 116.15393326 31.625 112.8125 C30.90828125 112.40064453 30.1915625 111.98878906 29.453125 111.56445312 C27.3149827 110.34679266 25.17305669 109.15447828 23 108 C22.43952972 107.69661713 21.87905945 107.39323425 21.30160522 107.08065796 C16.03849657 104.32386226 10.68898506 102.4444438 5.0234375 100.6875 C3.11714596 100.08085969 1.21089723 99.47408484 -0.6953125 98.8671875 C-3.66766363 97.9295342 -6.64095716 96.99500231 -9.61523438 96.06347656 C-12.50911326 95.15448956 -15.39916484 94.23405224 -18.2890625 93.3125 C-19.61582504 92.90294067 -19.61582504 92.90294067 -20.96939087 92.48510742 C-25.90537705 90.90559184 -29.90896327 89.21488292 -34 86 C-35.05878563 83.220009 -34.74581702 80.85508077 -34 78 C-32.1875 75.375 -32.1875 75.375 -29 74 C-23.29800512 74.30775385 -18.25824419 75.8793197 -13 78 C-11.0075675 78.37593066 -9.0081326 78.71979545 -7 79 C-7.11909602 71.37785452 -9.79187112 68.21099616 -15.125 63 C-16.44142224 61.66796801 -17.75653028 60.33463591 -19.0703125 59 C-19.72483398 58.34314209 -20.37935547 57.68628418 -21.05371094 57.00952148 C-23.60122 54.37924714 -25.98161877 51.62186172 -28.37060547 48.84814453 C-29.83306189 47.18934994 -31.3365955 45.61516325 -32.90625 44.05859375 C-33.7621875 43.19363281 -34.618125 42.32867187 -35.5 41.4375 C-36.81484375 40.13619141 -36.81484375 40.13619141 -38.15625 38.80859375 C-40 36 -40 36 -39.88671875 32.3125 C-38.89261593 28.59884719 -38.17803111 27.14731832 -35 25 C-32.1953125 24.58984375 -32.1953125 24.58984375 -29 25 C-26.25390625 27.125 -26.25390625 27.125 -23.5625 30 C-23.08804443 30.49749756 -22.61358887 30.99499512 -22.12475586 31.50756836 C-18.79173088 35.03195777 -15.59504293 38.67719782 -12.53515625 42.44140625 C-10.83330659 44.16923835 -9.21252886 45.03948531 -7 46 C-7.57442445 42.17050366 -9.26189215 40.28979485 -11.875 37.5 C-12.68195313 36.62859375 -13.48890625 35.7571875 -14.3203125 34.859375 C-15.20460937 33.91578125 -16.08890625 32.9721875 -17 32 C-18.44347595 30.43846657 -19.88299696 28.87339763 -21.32080078 27.30664062 C-22.68459049 25.82124206 -24.0531162 24.34019592 -25.421875 22.859375 C-26.69804688 21.44398438 -26.69804688 21.44398438 -28 20 C-28.47429443 19.48397217 -28.94858887 18.96794434 -29.43725586 18.4362793 C-32.99281636 14.42383459 -32.99281636 14.42383459 -33.0625 10.3125 C-32 7 -32 7 -30.375 5.0625 C-27.03947359 3.57029082 -24.62852473 3.65571567 -21 4 C-18.375 5.90625 -18.375 5.90625 -16 8.5 C-14.71609375 9.87865234 -14.71609375 9.87865234 -13.40625 11.28515625 C-12.6121875 12.18105469 -11.818125 13.07695312 -11 14 C-10.3915625 14.67933594 -9.783125 15.35867187 -9.15625 16.05859375 C-6.56938142 18.99322532 -4.02863895 21.9664617 -1.48828125 24.94140625 C-0.59698657 25.96149041 0.2949381 26.98102446 1.1875 28 C2.00605469 28.94875 2.82460937 29.8975 3.66796875 30.875 C5.96693763 33.4490234 5.96693763 33.4490234 10 33 C6.69946817 28.57588286 3.41768152 24.27553218 -0.5625 20.4375 C-9.95785112 11.23389074 -9.95785112 11.23389074 -10.0625 5.6875 C-7.92751194 0.28723609 -5.8286408 -0.74081046 0 0 Z " fill="#FCFCFC" transform="translate(151,146)"/>
<path d="M0 0 C0.33 0 0.66 0 1 0 C1.14695313 0.59167969 1.29390625 1.18335937 1.4453125 1.79296875 C3.39013545 8.64455764 5.73041016 11.40742528 11.83984375 15.1171875 C14.54962436 16.22462044 16.70584708 16.23077585 19.625 16.1875 C20.58664063 16.18105469 21.54828125 16.17460938 22.5390625 16.16796875 C25.00410451 16.1584765 25.00410451 16.1584765 27 15 C27.24621094 16.17949219 27.49242188 17.35898437 27.74609375 18.57421875 C28.80726338 22.79568707 30.63177551 26.22315262 33.0625 29.8125 C33.46170654 30.41505615 33.86091309 31.0176123 34.2722168 31.63842773 C40.36872048 40.68921594 47.54636959 48.74779736 55.01489258 56.67407227 C60.95311923 62.99206354 60.95311923 62.99206354 61.125 66.6875 C61.08375 67.450625 61.0425 68.21375 61 69 C56.47151375 70.76721415 52.84998852 71.66896393 48 71 C31.20389839 62.40156187 17.28392605 40.78267429 8 25 C8 24.34 8 23.68 8 23 C4.91910327 25.77280706 3.31224548 28.06326356 2 32 C4.51083114 30.74458443 4.87125446 29.49936512 6 27 C9.77162713 30.57100866 12.80805912 34.34026944 15.75 38.625 C23.29794972 49.36615062 31.59239011 58.86999171 41 68 C42.00214822 68.99784715 43.00330576 69.99670513 44 71 C42.35405757 70.85540319 40.70825269 70.70924064 39.0625 70.5625 C38.04414062 70.47226563 37.02578125 70.38203125 35.9765625 70.2890625 C33.61523227 70.05974697 31.28582711 69.76495597 28.9375 69.4375 C27.29392615 69.26809004 25.64736018 69.12743293 24 69 C23.34016113 68.94859863 22.68032227 68.89719727 22.00048828 68.84423828 C10.81331149 67.81918618 10.81331149 67.81918618 0.8125 72 C-1.87269348 74.57527328 -4.22289581 77.41162743 -6.625 80.25 C-10.44601396 84.74121459 -13.83505451 86.69399698 -19.828125 87.2734375 C-27.66010436 87.52925592 -33.40402904 86.39731397 -40 82 C-40.46875 79.53125 -40.46875 79.53125 -40.5 76.5 C-40.5309375 75.5203125 -40.561875 74.540625 -40.59375 73.53125 C-39.15143348 64.95326228 -33.48364897 57.23836612 -29.0625 49.875 C-27.9134408 47.94568263 -26.76502683 46.01598087 -25.6171875 44.0859375 C-25.02518555 43.09174805 -24.43318359 42.09755859 -23.82324219 41.07324219 C-20.75242338 35.89709501 -17.71856044 30.69950068 -14.6875 25.5 C-14.10154053 24.49501465 -13.51558105 23.4900293 -12.91186523 22.45458984 C-8.56691768 14.99289618 -4.25828288 7.5115052 0 0 Z " fill="#FAFAFA" transform="translate(71,25)"/>
<path d="M0 0 C3.0633498 0.99891841 3.93419072 1.45409887 5.875 3.9375 C8.50296326 11.06924858 10.1879249 18.37967393 10.875 25.9375 C11.18823028 27.60806149 11.51178515 29.27708925 11.875 30.9375 C12.44605469 31.01871094 13.01710938 31.09992188 13.60546875 31.18359375 C16.59465155 32.17655809 18.00529167 33.74027094 20.1875 36 C20.98027344 36.81984375 21.77304688 37.6396875 22.58984375 38.484375 C25.09205621 41.17051076 27.52593914 43.89755956 29.90234375 46.6953125 C31.48190347 48.49069325 33.09101364 50.21346597 34.75390625 51.9296875 C35.25809082 52.45715576 35.76227539 52.98462402 36.28173828 53.52807617 C37.28456518 54.57424695 38.29700311 55.61130803 39.31982422 56.63793945 C41.60968694 59.04682374 42.82043418 60.44371298 43.19140625 63.80078125 C43.03478516 64.85845703 43.03478516 64.85845703 42.875 65.9375 C42.11316406 65.73253906 41.35132813 65.52757812 40.56640625 65.31640625 C31.35588464 62.61779464 31.35588464 62.61779464 21.875 61.9375 C18.95356583 63.70253314 17.39576183 64.89597635 15.875 67.9375 C15.37735854 71.66981095 15.42349264 73.33523011 17.71166992 76.38745117 C21.66190835 80.09616675 26.80230044 81.32380628 31.86328125 82.92578125 C33.45078438 83.44787422 33.45078438 83.44787422 35.07035828 83.98051453 C38.43829239 85.08456082 41.81258682 86.16749882 45.1875 87.25 C47.47766525 87.99666282 49.76738469 88.7446945 52.05664062 89.49414062 C57.65769217 91.3244855 63.2641066 93.13756633 68.875 94.9375 C69.52199006 98.31227931 70.16738432 101.68736193 70.8125 105.0625 C71.08610352 106.48949219 71.08610352 106.48949219 71.36523438 107.9453125 C71.54248047 108.8734375 71.71972656 109.8015625 71.90234375 110.7578125 C72.14585571 112.03035889 72.14585571 112.03035889 72.39428711 113.32861328 C72.92192616 116.1921739 73.39630859 119.06535152 73.875 121.9375 C58.365 121.9375 42.855 121.9375 26.875 121.9375 C24.235 117.3175 21.595 112.6975 18.875 107.9375 C16.48864178 104.18129023 14.08407667 100.45673521 11.625 96.75 C10.98240234 95.76298096 10.33980469 94.77596191 9.67773438 93.7590332 C6.68672009 89.165637 3.66604542 84.61218931 0.484375 80.1484375 C-8.91940342 66.65656329 -16.61286152 48.75425056 -15.125 31.9375 C-14.465 31.2775 -13.805 30.6175 -13.125 29.9375 C-10.39644596 30.14738877 -8.68358386 30.47771918 -6.55151367 32.23266602 C-4.93814454 34.16081194 -4.39503859 35.61085906 -3.73828125 38.02734375 C-3.52236328 38.81173828 -3.30644531 39.59613281 -3.08398438 40.40429688 C-2.87064453 41.21962891 -2.65730469 42.03496094 -2.4375 42.875 C-2.21255859 43.68646484 -1.98761719 44.49792969 -1.75585938 45.33398438 C-0.74387382 49.08356004 -0.125 52.00232509 -0.125 55.9375 C0.535 55.9375 1.195 55.9375 1.875 55.9375 C3.26222689 51.33727665 2.35637007 47.584627 1.1875 43.0625 C1.00324463 42.31798584 0.81898926 41.57347168 0.62915039 40.80639648 C0.0570419 38.51334285 -0.53142749 36.22508287 -1.125 33.9375 C-1.30256836 33.24640137 -1.48013672 32.55530273 -1.66308594 31.84326172 C-3.46279044 24.86387839 -5.35133657 17.93211785 -7.609375 11.0859375 C-8.20865554 8.58893523 -8.35226863 6.49637646 -8.125 3.9375 C-5.41940372 0.91359827 -4.10202376 -0.08204048 0 0 Z " fill="#FAFAFA" transform="translate(99.125,157.0625)"/>
<path d="M0 0 C0.25885986 0.58104492 0.51771973 1.16208984 0.78442383 1.76074219 C2.09484176 4.17471152 3.54846882 5.84997121 5.44921875 7.828125 C6.13306641 8.54613281 6.81691406 9.26414063 7.52148438 10.00390625 C8.23626953 10.74511719 8.95105469 11.48632812 9.6875 12.25 C14.38082367 17.14775946 18.9857846 22.08102268 23.42163086 27.21386719 C25.50173684 29.5677814 27.72996454 31.76604958 29.9375 34 C32.87103188 37.2119688 34.57814523 39.19739987 34.5625 43.625 C34.2840625 45.295625 34.2840625 45.295625 34 47 C28.07392449 46.52209068 22.96333526 45.51961942 17.359375 43.5234375 C14.54616898 42.89931563 12.74338353 43.16225537 10 44 C7.81668311 45.76136355 7.81668311 45.76136355 7.8046875 47.9453125 C7.82789062 48.66460937 7.85109375 49.38390625 7.875 50.125 C7.936875 52.043125 7.936875 52.043125 8 54 C13.90482705 57.13605647 19.74430689 59.38951303 26.1171875 61.3828125 C27.0555545 61.68315399 27.99392151 61.98349548 28.96072388 62.29293823 C31.9302222 63.24313934 34.90224468 64.18504216 37.875 65.125 C41.8121669 66.37061091 45.74663242 67.62428754 49.6796875 68.8828125 C50.584841 69.16617462 51.48999451 69.44953674 52.4225769 69.7414856 C53.25749664 70.00871429 54.09241638 70.27594299 54.95263672 70.55126953 C56.055616 70.89957321 56.055616 70.89957321 57.18087769 71.25491333 C59 72 59 72 61 74 C60.34 74 59.68 74 59 74 C58.67 74.66 58.34 75.32 58 76 C58 75.34 58 74.68 58 74 C56.71520752 73.73356689 55.43041504 73.46713379 54.10668945 73.19262695 C49.0580626 72.0680478 44.19511638 70.55757652 39.29296875 68.91796875 C38.40515213 68.62191238 37.51733551 68.32585602 36.60261536 68.02082825 C34.7420564 67.39738571 32.88241984 66.77118417 31.02368164 66.14233398 C28.18269505 65.18588236 25.33482213 64.25217535 22.48632812 63.31835938 C20.67140565 62.70712103 18.85693558 62.09453735 17.04296875 61.48046875 C15.77104927 61.06924019 15.77104927 61.06924019 14.47343445 60.64970398 C9.64994611 58.98322277 6.72283792 57.56790995 4 53 C3.40478623 49.89166141 3.34487664 48.03949464 5.05859375 45.3203125 C6.84037399 43.11027054 8.4390915 41.28045425 11 40 C18.49056756 40.36244682 24.98040287 42.44633945 32 45 C30.64231562 38.88567312 27.18878662 35.56585658 22.9375 31.25 C21.57328192 29.83553837 20.20999823 28.42017494 18.84765625 27.00390625 C18.18652832 26.32086426 17.52540039 25.63782227 16.84423828 24.93408203 C13.7565117 21.69593404 10.84132156 18.31487515 7.9296875 14.91796875 C6.02897565 12.86684461 6.02897565 12.86684461 3.34375 11.45703125 C1 10 1 10 -0.375 6.5 C-1 3 -1 3 0 0 Z " fill="#252525" transform="translate(110,178)"/>
<path d="M0 0 C0.66 0 1.32 0 2 0 C3.3046875 1.84375 3.3046875 1.84375 4.875 4.5 C12.0968748 16.16031868 20.51391202 27.09352662 30 37 C30.63808594 37.67804688 31.27617188 38.35609375 31.93359375 39.0546875 C37.6818233 45.07353685 37.6818233 45.07353685 45.5 47.25 C48.43690389 47.04022115 51.14381237 46.69240912 54 46 C53.01 46.495 53.01 46.495 52 47 C52 48.98 52 50.96 52 53 C48.21376149 55.48471902 44.36674546 55.29746462 40 55.25 C38.93265625 55.26160156 38.93265625 55.26160156 37.84375 55.2734375 C34.07570168 55.25937762 31.19510797 55.09678961 28 53 C28 51.68 28 50.36 28 49 C30.97 48.34 33.94 47.68 37 47 C35.865625 46.030625 34.73125 45.06125 33.5625 44.0625 C20.50510152 32.5655639 10.70214755 19.31886993 1 5 C0.319375 5.99 0.319375 5.99 -0.375 7 C-0.91125 7.66 -1.4475 8.32 -2 9 C-2.66 9 -3.32 9 -4 9 C-3.4739075 5.21213403 -2.61896089 2.82847776 0 0 Z " fill="#1D1D1D" transform="translate(77,48)"/>
<path d="M0 0 C3 2 3 2 3.9375 5.3125 C4.01437485 9.84811605 2.79611261 10.6107726 0 14 C-0.56435082 17.44881059 -0.78765366 19.75719699 1.12890625 22.78125 C2.34595178 24.25141326 3.66721095 25.63389123 5 27 C1.77259982 28.73783087 -1.52011052 29.86546069 -5 31 C-6.01323683 27.62883171 -7.00818641 24.25252736 -8 20.875 C-8.42925781 19.44800781 -8.42925781 19.44800781 -8.8671875 17.9921875 C-11.59983427 8.62311288 -11.59983427 8.62311288 -11 4 C-7.60786151 0.2087864 -5.01243671 -0.65379609 0 0 Z " fill="#F4F4F4" transform="translate(117,140)"/>
<path d="M0 0 C0.4125 0.556875 0.825 1.11375 1.25 1.6875 C1.8275 2.450625 2.405 3.21375 3 4 C3.598125 4.825 4.19625 5.65 4.8125 6.5 C10.61043205 13.12620805 17.53358297 14.98402996 26 16 C24.25 21.75 24.25 21.75 22 24 C14.08067232 24.83361344 7.79393503 22.3972105 1.5625 17.5 C-1.74653925 14.27166902 -2.8263123 12.63266434 -3.3125 8.0625 C-2.96254513 4.63294224 -1.96936747 2.78993726 0 0 Z " fill="#F2F2F2" transform="translate(79,10)"/>
<path d="M0 0 C0.99 0 1.98 0 3 0 C3.02686553 1.97909398 3.04633375 3.95828971 3.0625 5.9375 C3.07410156 7.03964844 3.08570312 8.14179688 3.09765625 9.27734375 C3 12 3 12 2 13 C3.32 13.66 4.64 14.32 6 15 C3.98177083 15.42317708 1.96354167 15.84635417 -0.0546875 16.26953125 C-2.37046549 16.92308838 -2.37046549 16.92308838 -4 20 C-4.62164042 22.36269613 -4.62164042 22.36269613 -4 25 C-2.25061571 27.25851136 -0.56341106 29.17938386 1.4375 31.1875 C2.54221278 32.33801754 3.64637419 33.48906475 4.75 34.640625 C5.30042969 35.20716797 5.85085937 35.77371094 6.41796875 36.35742188 C9.3908427 39.44407249 12.23373001 42.64655996 15.08203125 45.84765625 C16.27157888 47.18256612 17.47491618 48.50548549 18.69921875 49.80859375 C20.125 51.375 20.125 51.375 22 54 C21.8125 56.375 21.8125 56.375 21 58 C14.81371896 55.22358629 10.69349117 49.8421787 6.3125 44.8125 C5.73242188 44.14863281 5.15234375 43.48476562 4.5546875 42.80078125 C3.33055033 41.38287362 2.12958879 39.94495611 0.9375 38.5 C-1.00125945 36.73483795 -1.00125945 36.73483795 -4.0625 36.625 C-7.18542374 36.80232037 -7.18542374 36.80232037 -10 39 C-10 38.34 -10 37.68 -10 37 C-10.66 37 -11.32 37 -12 37 C-11.67 35.68 -11.34 34.36 -11 33 C-11 33.99 -11 34.98 -11 36 C-8.03 34.68 -5.06 33.36 -2 32 C-2.825 31.154375 -3.65 30.30875 -4.5 29.4375 C-6.5716972 26.91594855 -7.01324712 25.92714083 -7.625 22.5625 C-6.79735565 17.84492719 -5.05929981 15.65623636 -2 12 C-1.67 12 -1.34 12 -1 12 C-0.67 8.04 -0.34 4.08 0 0 Z " fill="#212121" transform="translate(123,135)"/>
<path d="M0 0 C5.23914756 2.15466649 10.28988308 4.79785774 13.8515625 9.31640625 C14.7890625 13.19140625 14.7890625 13.19140625 14.8515625 16.31640625 C6.48398573 16.71840727 1.28611182 16.12236746 -5.3984375 10.81640625 C-8.1484375 8.31640625 -8.1484375 8.31640625 -10.1484375 5.31640625 C-10.2734375 2.62890625 -10.2734375 2.62890625 -10.1484375 0.31640625 C-6.71641573 -1.39960463 -3.63015909 -1.15505062 0 0 Z " fill="#F5F5F5" transform="translate(92.1484375,6.68359375)"/>
<path d="M0 0 C1 2 1 2 1.3046875 5.28125 C2.09735104 9.52066397 3.3247452 11.27258769 6.125 14.5 C7.33929688 15.90958984 7.33929688 15.90958984 8.578125 17.34765625 C11.16096667 20.17628447 13.80946314 22.9041023 16.55859375 25.5703125 C18.2587719 27.25666807 19.72286574 28.97161029 21 31 C21 31.66 21 32.32 21 33 C19.20703125 33.68359375 19.20703125 33.68359375 17 34 C15.32421875 32.84765625 15.32421875 32.84765625 13.6875 31.0625 C12.77097656 30.07830078 12.77097656 30.07830078 11.8359375 29.07421875 C9.5768351 26.52191369 7.32081089 23.96938642 5.10546875 21.37890625 C3.41389961 19.46765281 1.69240191 17.61781889 -0.07421875 15.77734375 C-0.61731689 15.2064502 -1.16041504 14.63555664 -1.7199707 14.04736328 C-2.80569033 12.90927157 -3.89907345 11.77843146 -5.00073242 10.65576172 C-7.94357911 7.55390599 -9.69438527 5.3349037 -10 1 C-6.78548731 -0.60725635 -3.56387464 -0.05748185 0 0 Z " fill="#222222" transform="translate(140,146)"/>
<path d="M0 0 C0.25885986 0.58104492 0.51771973 1.16208984 0.78442383 1.76074219 C2.09484176 4.17471152 3.54846882 5.84997121 5.44921875 7.828125 C6.13306641 8.54613281 6.81691406 9.26414063 7.52148438 10.00390625 C8.23626953 10.74511719 8.95105469 11.48632812 9.6875 12.25 C14.38082367 17.14775946 18.9857846 22.08102268 23.42163086 27.21386719 C25.50173684 29.5677814 27.72996454 31.76604958 29.9375 34 C32.87103188 37.2119688 34.57814523 39.19739987 34.5625 43.625 C34.2840625 45.295625 34.2840625 45.295625 34 47 C28.33557626 46.63495936 23.99296295 45.9445679 19 43 C22.42943519 41.81228277 24.37784675 42.19773777 27.75 43.4375 C28.54921875 43.72496094 29.3484375 44.01242188 30.171875 44.30859375 C31.07679688 44.65083984 31.07679688 44.65083984 32 45 C30.64231562 38.88567312 27.18878662 35.56585658 22.9375 31.25 C21.57328192 29.83553837 20.20999823 28.42017494 18.84765625 27.00390625 C18.18652832 26.32086426 17.52540039 25.63782227 16.84423828 24.93408203 C13.7565117 21.69593404 10.84132156 18.31487515 7.9296875 14.91796875 C6.02897565 12.86684461 6.02897565 12.86684461 3.34375 11.45703125 C1 10 1 10 -0.375 6.5 C-1 3 -1 3 0 0 Z " fill="#272727" transform="translate(110,178)"/>
<path d="M0 0 C0.70125 0.7425 1.4025 1.485 2.125 2.25 C8.21250111 8.07282715 13.94588458 10.10828606 22 12 C20.73046875 13.96484375 20.73046875 13.96484375 19 16 C13.13311702 16.89494825 9.61159566 15.87303721 4.76953125 12.4921875 C2.12605688 10.26303251 0.49203751 8.11381741 -1 5 C-0.75 2.125 -0.75 2.125 0 0 Z " fill="#EEEEEE" transform="translate(75,24)"/>
<path d="M0 0 C7.59 0.33 15.18 0.66 23 1 C23 2.32 23 3.64 23 5 C19.3185193 6.22716023 15.89589238 6.18406814 12.0625 6.1875 C10.98838867 6.20586914 10.98838867 6.20586914 9.89257812 6.22460938 C6.10026892 6.23515333 3.21400906 6.12309215 0 4 C0 2.68 0 1.36 0 0 Z " fill="#EEEEEE" transform="translate(105,97)"/>
<path d="M0 0 C3.33510304 1.11170101 4.10364173 1.99468142 6.3125 4.625 C8.11655239 6.77139922 9.90601477 8.89977592 11.82421875 10.9453125 C12.37722656 11.54085937 12.93023437 12.13640625 13.5 12.75 C14.0053125 13.28109375 14.510625 13.8121875 15.03125 14.359375 C16 16 16 16 15.65625 18.203125 C15.4396875 18.79609375 15.223125 19.3890625 15 20 C10.35091385 17.92469677 7.44053713 14.66275445 4 11 C3.47277344 10.46632812 2.94554687 9.93265625 2.40234375 9.3828125 C1 7.875 1 7.875 -1 5 C-0.8125 2.125 -0.8125 2.125 0 0 Z " fill="#151515" transform="translate(129,173)"/>
<path d="M0 0 C0.66 0 1.32 0 2 0 C3.3046875 1.84375 3.3046875 1.84375 4.875 4.5 C8.57148373 10.50678606 12.7228611 16.08689867 16.99951172 21.69140625 C17.75385498 22.68140625 17.75385498 22.68140625 18.5234375 23.69140625 C18.97638184 24.28123291 19.42932617 24.87105957 19.89599609 25.47875977 C21 27 21 27 22 29 C21.34 29.66 20.68 30.32 20 31 C13.35800587 22.52764423 7.03965562 13.91359803 1 5 C0.319375 5.99 0.319375 5.99 -0.375 7 C-0.91125 7.66 -1.4475 8.32 -2 9 C-2.66 9 -3.32 9 -4 9 C-3.4739075 5.21213403 -2.61896089 2.82847776 0 0 Z " fill="#2A2A2A" transform="translate(77,48)"/>
<path d="M0 0 C5.54069415 4.501814 10.63142314 9.32652356 15 15 C15 15.66 15 16.32 15 17 C13.2109375 17.6875 13.2109375 17.6875 11 18 C9.2890625 16.8125 9.2890625 16.8125 7.625 15 C7.02816406 14.35933594 6.43132812 13.71867188 5.81640625 13.05859375 C3.17564817 10.06573459 0.56155847 7.06137476 -2 4 C-1.34 2.68 -0.68 1.36 0 0 Z " fill="#101010" transform="translate(146,162)"/>
<path d="M0 0 C0.99 0.33 1.98 0.66 3 1 C3.7734375 2.70703125 3.7734375 2.70703125 4.375 4.8125 C5.74996399 8.83660927 7.34139577 10.67990951 11 13 C11.8971875 13.61875 11.8971875 13.61875 12.8125 14.25 C16.30992572 15.44911739 19.30509561 15.2345971 23 15 C23.99 14.34 24.98 13.68 26 13 C26.66 13.33 27.32 13.66 28 14 C27.67 15.32 27.34 16.64 27 18 C26.34 18 25.68 18 25 18 C24.23429687 18.05800781 23.46859375 18.11601563 22.6796875 18.17578125 C15.67360372 18.51730344 11.36687212 17.59292603 6 13 C1.95515647 9.06159972 1.09517373 5.38460418 0 0 Z " fill="#242424" transform="translate(71,24)"/>
<path d="M0 0 C1.22589844 0.15275391 1.22589844 0.15275391 2.4765625 0.30859375 C3.41628906 0.43427734 3.41628906 0.43427734 4.375 0.5625 C4.375 1.5525 4.375 2.5425 4.375 3.5625 C2.51875 3.2221875 2.51875 3.2221875 0.625 2.875 C-2.16082128 2.54899964 -3.45238479 2.4977693 -6.125 3.5 C-8.13363418 6.26187199 -8.17944836 8.32833722 -8.03125 11.6875 C-7.75127658 13.79711648 -7.75127658 13.79711648 -5.625 15.5625 C-4.965 15.8925 -4.305 16.2225 -3.625 16.5625 C-4.945 16.8925 -6.265 17.2225 -7.625 17.5625 C-10.09340077 14.93982418 -11.50297841 13.19972388 -12.1875 9.625 C-11.40090045 5.34240245 -9.65613127 3.66580106 -6.625 0.5625 C-4.10446405 -0.69776798 -2.7707902 -0.35624445 0 0 Z " fill="#2B2B2B" transform="translate(125.625,218.4375)"/>
<path d="M0 0 C0.40089844 0.38671875 0.80179687 0.7734375 1.21484375 1.171875 C7.94661604 7.33885007 15.17386652 10.07429815 24 12 C24 12.33 24 12.66 24 13 C15.01383957 13.57054987 8.83956469 11.61050564 1.9375 5.75 C0.94848707 4.84396548 -0.03464992 3.93120586 -1 3 C-0.67 2.01 -0.34 1.02 0 0 Z " fill="#1F1F1F" transform="translate(77,23)"/>
<path d="M0 0 C0.2475 0.556875 0.495 1.11375 0.75 1.6875 C3.52436296 6.82007148 6.80526054 10.30986706 12 13 C15.97471369 13.89964747 19.9567457 14.50277132 24 15 C24 15.33 24 15.66 24 16 C17.76838505 17.17284363 13.69455343 17.26909549 8 14 C3.8078964 11.02027667 0.13551369 8.2517508 -1 3 C-0.67 2.01 -0.34 1.02 0 0 Z " fill="#2A2A2A" transform="translate(81,8)"/>
<path d="M0 0 C2.64 0 5.28 0 8 0 C9.27351308 2.54702616 8.80191925 3.4282945 8.0625 6.125 C7.86785156 6.84945312 7.67320312 7.57390625 7.47265625 8.3203125 C7.31667969 8.87460938 7.16070312 9.42890625 7 10 C5.82174642 9.09827532 4.65768423 8.17798498 3.5 7.25 C2.8503125 6.73953125 2.200625 6.2290625 1.53125 5.703125 C0 4 0 4 0 0 Z " fill="#ECECEC" transform="translate(132,146)"/>
<path d="M0 0 C0.5775 0.515625 1.155 1.03125 1.75 1.5625 C1.42 2.2225 1.09 2.8825 0.75 3.5625 C-1.25043398 3.5625 -3.25130025 3.52077916 -5.25 3.4375 C-8.43401813 3.30992609 -8.43401813 3.30992609 -11.25 5.5625 C-11.25 4.9025 -11.25 4.2425 -11.25 3.5625 C-11.91 3.5625 -12.57 3.5625 -13.25 3.5625 C-12.92 2.2425 -12.59 0.9225 -12.25 -0.4375 C-12.25 0.5525 -12.25 1.5425 -12.25 2.5625 C-11.3425 2.088125 -10.435 1.61375 -9.5 1.125 C-3.07442748 -1.96421756 -3.07442748 -1.96421756 0 0 Z " fill="#424242" transform="translate(124.25,168.4375)"/>
<path d="M0 0 C0.33 0 0.66 0 1 0 C1 2.31 1 4.62 1 7 C-4.66442374 6.63495936 -9.00703705 5.9445679 -14 3 C-10.57056481 1.81228277 -8.62215325 2.19773777 -5.25 3.4375 C-4.45078125 3.72496094 -3.6515625 4.01242188 -2.828125 4.30859375 C-2.22484375 4.53675781 -1.6215625 4.76492187 -1 5 C-0.67 3.35 -0.34 1.7 0 0 Z " fill="#181818" transform="translate(143,218)"/>
<path d="M0 0 C0.66 0 1.32 0 2 0 C2.0825 1.258125 2.165 2.51625 2.25 3.8125 C2.66557143 7.33811212 2.66557143 7.33811212 5.0625 10 C5.701875 10.33 6.34125 10.66 7 11 C5.68 11.33 4.36 11.66 3 12 C0.33973399 9.17346736 -0.93491949 7.67683725 -1.3125 3.75 C-1 1 -1 1 0 0 Z " fill="#343434" transform="translate(115,224)"/>
<path d="M0 0 C0.99 0.33 1.98 0.66 3 1 C2.34 1 1.68 1 1 1 C1 2.98 1 4.96 1 7 C0.67 6.01 0.34 5.02 0 4 C-3.3 4 -6.6 4 -10 4 C-10 3.34 -10 2.68 -10 2 C-10.66 1.67 -11.32 1.34 -12 1 C-10.95199219 1.01740234 -10.95199219 1.01740234 -9.8828125 1.03515625 C-8.97273438 1.04417969 -8.06265625 1.05320312 -7.125 1.0625 C-5.76761719 1.07990234 -5.76761719 1.07990234 -4.3828125 1.09765625 C-1.9831415 1.16249257 -1.9831415 1.16249257 0 0 Z " fill="#343434" transform="translate(128,94)"/>
<path d="M0 0 C4 1 4 1 6 2 C5.41789544 6.19115285 4.71843438 7.37542083 2 11 C1.34 7.37 0.68 3.74 0 0 Z " fill="#0D0D0D" transform="translate(107,170)"/>
<path d="M0 0 C0.66 0 1.32 0 2 0 C2 0.66 2 1.32 2 2 C2.66 2 3.32 2 4 2 C5.38232443 3.62626404 6.71937515 5.2925002 8 7 C7.67 7.66 7.34 8.32 7 9 C3.63408134 7.55746343 1.48952921 5.66735273 -1 3 C-0.67 2.01 -0.34 1.02 0 0 Z " fill="#373737" transform="translate(135,182)"/>
<path d="M0 0 C0.99 0 1.98 0 3 0 C3 3.96 3 7.92 3 12 C2.34 12 1.68 12 1 12 C0.67 8.04 0.34 4.08 0 0 Z " fill="#C1C1C1" transform="translate(123,135)"/>
<path d="M0 0 C7.425 0.99 7.425 0.99 15 2 C15 2.33 15 2.66 15 3 C9.43842552 3.91457003 5.324335 4.32086397 0 2 C0 1.34 0 0.68 0 0 Z " fill="#363636" transform="translate(90,21)"/>
<path d="M0 0 C1.17539996 0.92652701 2.34010577 1.86663387 3.5 2.8125 C4.1496875 3.33457031 4.799375 3.85664063 5.46875 4.39453125 C7 6 7 6 7 9 C5.82460004 8.07347299 4.65989423 7.13336613 3.5 6.1875 C2.52546875 5.40439453 2.52546875 5.40439453 1.53125 4.60546875 C0 3 0 3 0 0 Z " fill="#191919" transform="translate(117,189)"/>
<path d="M0 0 C0.33 0 0.66 0 1 0 C1.0825 1.11375 1.165 2.2275 1.25 3.375 C1.57873787 7.05753944 1.57873787 7.05753944 4.0625 8.4375 C4.701875 8.623125 5.34125 8.80875 6 9 C2.625 9.625 2.625 9.625 -1 10 C-1.66 9.34 -2.32 8.68 -3 8 C-2.34 7.34 -1.68 6.68 -1 6 C-0.60235737 4.01178687 -0.26224651 2.01055661 0 0 Z " fill="#5B5B5B" transform="translate(123,141)"/>
<path d="M0 0 C2.31 1.98 4.62 3.96 7 6 C6.01 6.66 5.02 7.32 4 8 C2.35 6.35 0.7 4.7 -1 3 C-0.67 2.01 -0.34 1.02 0 0 Z " fill="#303030" transform="translate(77,23)"/>
</svg>
