<?xml version="1.0" encoding="UTF-8"?>
<svg version="1.1" xmlns="http://www.w3.org/2000/svg" width="500" height="500">
<path d="M0 0 C17.53597152 14.91067346 29.35526122 34.98877834 33.3125 57.6875 C33.6528125 59.5746875 33.6528125 59.5746875 34 61.5 C36.52594291 87.18937679 30.09897838 113.35079408 13.8125 133.6875 C9.5374491 138.58599582 5.08380419 143.27025019 0.3125 147.6875 C-0.31398437 148.28046875 -0.94046875 148.8734375 -1.5859375 149.484375 C-6.59016737 153.7963201 -12.20599209 156.60372473 -18.125 159.4375 C-18.91181152 159.81455078 -19.69862305 160.19160156 -20.50927734 160.58007812 C-26.1010361 163.16498046 -31.74896347 165.06170522 -37.6875 166.6875 C-38.01415459 172.82744864 -38.01415459 172.82744864 -36.6875 178.6875 C-33.72816362 180.08843099 -33.72816362 180.08843099 -31.671875 180.62109375 C-25.80103581 183.77609197 -23.54081383 189.78911296 -21.55859375 195.7578125 C-21.28777985 196.53850601 -21.01696594 197.31919952 -20.73794556 198.12355042 C-19.85413409 200.68232895 -18.98936611 203.24709413 -18.125 205.8125 C-17.50479113 207.62248308 -16.88360101 209.4321302 -16.26147461 211.24145508 C-14.38419914 216.71701598 -12.533219 222.20123551 -10.6875 227.6875 C-10.16181276 229.24626626 -9.63609811 230.80502327 -9.11035156 232.36376953 C-4.58979467 245.78418436 -0.14390468 259.22917811 4.25834656 272.68882751 C5.62251718 276.85408277 6.99378469 281.01698409 8.36599731 285.17959595 C9.03500782 287.21540081 9.70063573 289.2523206 10.36276245 291.29037476 C11.28709559 294.1351278 12.22243184 296.97604427 13.16015625 299.81640625 C13.43465607 300.67088348 13.70915588 301.52536072 13.99197388 302.4057312 C14.25380463 303.19166656 14.51563538 303.97760193 14.78540039 304.78735352 C15.00901749 305.47152847 15.23263458 306.15570343 15.46302795 306.86061096 C17.43619657 311.10414097 20.88336299 312.63489115 24.96484375 314.5859375 C26.11847412 315.14055664 27.27210449 315.69517578 28.46069336 316.26660156 C29.72368217 316.86547359 30.98678777 317.46409938 32.25 318.0625 C33.56731481 318.69201436 34.88445067 319.32190331 36.20141602 319.95214844 C45.79925105 324.53527768 55.44070284 329.02424221 65.09692383 333.48291016 C75.74128267 338.40280365 86.34179494 343.4137953 96.9375 348.4375 C97.7908493 348.84198364 98.64419861 349.24646729 99.52340698 349.66320801 C101.94550452 350.81148334 104.36736762 351.96025072 106.7890625 353.109375 C107.52102341 353.45665649 108.25298431 353.80393799 109.00712585 354.16174316 C114.07009484 356.56629742 114.07009484 356.56629742 116.3125 357.6875 C118.91136557 357.62223169 121.47150734 357.49507158 124.0625 357.3125 C124.82675293 357.26359619 125.59100586 357.21469238 126.37841797 357.16430664 C129.92914537 356.93357212 133.47622033 356.67457471 137.0234375 356.39453125 C166.23172006 354.08861421 166.23172006 354.08861421 174.3125 359.8125 C177.42255221 364.28320005 177.3125 368.28752212 177.3125 373.6875 C178.5809375 373.92533203 178.5809375 373.92533203 179.875 374.16796875 C188.34704104 375.91051355 195.45528957 377.40168436 200.4375 384.875 C201.78009637 390.7248842 201.12596838 395.50037451 198.13671875 400.75390625 C189.76549526 411.46128513 174.11262823 420.23122549 160.9375 422.75 C144.35124226 423.67145876 124.59980765 410.96127466 112.3125 400.6875 C111.11477968 399.2301846 109.92544427 397.76595823 108.7421875 396.296875 C103.88871142 390.71661082 98.21142536 388.28781188 91.5 385.4375 C90.2566399 384.88871679 89.01447221 384.33722498 87.7734375 383.78320312 C85.85562292 382.92727472 83.93730634 382.0728798 82.01522827 381.2265625 C75.53725747 378.37166536 69.17482295 375.29062635 62.8125 372.1875 C53.72802036 367.78440614 44.60245528 363.48283899 35.4375 359.25 C33.12348957 358.17362489 30.80968898 357.09679852 28.49609375 356.01953125 C24.12813849 353.98639166 19.75111304 351.9767758 15.36175537 349.99034119 C12.70697374 348.7828013 10.06174661 347.5552648 7.41815186 346.32345581 C6.1598842 345.74228725 4.89778627 345.16932593 3.63165283 344.60549927 C-6.02320973 340.29900564 -12.58879985 335.62077974 -16.46484375 325.52734375 C-16.87071801 324.23241158 -17.25792778 322.93146134 -17.625 321.625 C-17.83189453 320.95017578 -18.03878906 320.27535156 -18.25195312 319.58007812 C-18.74773229 317.95438365 -19.22029644 316.32163596 -19.6875 314.6875 C-20.01621094 316.22857422 -20.01621094 316.22857422 -20.3515625 317.80078125 C-23.18906137 330.38493618 -23.18906137 330.38493618 -26.9375 335.75 C-30.15386202 341.18036097 -30.04565894 345.89696305 -29.921875 352.015625 C-29.9113208 353.02240799 -29.9007666 354.02919098 -29.88989258 355.06648254 C-29.73340548 366.51098325 -29.22343727 377.94317031 -28.6875 389.375 C-28.49659636 393.5245918 -28.30893678 397.67431227 -28.125 401.82421875 C-28.06046631 403.27705765 -28.06046631 403.27705765 -27.99462891 404.75924683 C-27.71136351 411.40969699 -27.58667392 418.0309113 -27.6875 424.6875 C-34.46454611 424.56899244 -41.24145621 424.44419084 -48.01831055 424.31518555 C-50.31971667 424.27209772 -52.62114941 424.23040648 -54.92260742 424.19018555 C-58.24666334 424.1318435 -61.57058847 424.06833954 -64.89453125 424.00390625 C-65.9095723 423.98719376 -66.92461334 423.97048126 -67.97041321 423.95326233 C-74.58028611 423.81876196 -81.11205364 423.37297863 -87.6875 422.6875 C-87.85435747 411.3333087 -87.25647498 400.02462913 -86.6875 388.6875 C-87.59242188 388.41486328 -87.59242188 388.41486328 -88.515625 388.13671875 C-92.85882435 386.7707125 -96.04904382 385.44714171 -99.6875 382.6875 C-102.10390913 382.48717593 -104.3477299 382.68535767 -106.76171875 382.875 C-109.41815824 382.70476089 -111.02562604 382.29214036 -113.4831543 381.40405273 C-119.20804248 379.44750963 -125.04061149 377.9949747 -130.90726089 376.52943611 C-132.92728705 376.02402879 -134.94584726 375.51311136 -136.96408081 375.00059509 C-142.69548899 373.54554606 -148.42812524 372.09555363 -154.16455078 370.66040039 C-157.69151916 369.77759695 -161.21577012 368.88458141 -164.73852158 367.98510551 C-166.0714841 367.6468305 -167.40541216 367.31233482 -168.74032974 366.98185921 C-185.19145698 362.90608179 -185.19145698 362.90608179 -190.0625 356.625 C-192.61717877 352.00692683 -193.46740474 347.9075442 -192.6875 342.6875 C-190.98609977 338.1919899 -188.77099816 334.07284588 -185.80859375 330.28515625 C-183.88340683 327.71962639 -182.56956283 325.78143611 -181.6875 322.6875 C-182.69672658 319.08184907 -184.21770082 316.13208863 -186.0078125 312.84765625 C-191.48477956 302.5433159 -190.80789396 289.65033227 -187.71875 278.6953125 C-182.6558273 263.92845463 -173.27819208 252.37585503 -159.1484375 245.44140625 C-149.3265741 241.2906807 -138.20955249 238.62163389 -127.6875 241.6875 C-127.41905273 240.96038818 -127.15060547 240.23327637 -126.87402344 239.48413086 C-125.70386117 236.72606321 -124.35683019 234.43481275 -122.703125 231.94140625 C-122.10435547 231.03213379 -121.50558594 230.12286133 -120.88867188 229.18603516 C-120.24478516 228.21714355 -119.60089844 227.24825195 -118.9375 226.25 C-113.02105391 217.27921013 -107.20029568 208.25777391 -101.52050781 199.13500977 C-90.91454003 182.28448171 -90.91454003 182.28448171 -81.6875 178.6875 C-81.0275 178.6875 -80.3675 178.6875 -79.6875 178.6875 C-80.0175 175.0575 -80.3475 171.4275 -80.6875 167.6875 C-81.656875 167.419375 -82.62625 167.15125 -83.625 166.875 C-110.7663655 159.07001985 -131.7524287 143.67417744 -145.890625 118.89453125 C-150.68182296 110.10829879 -153.50287268 101.43079706 -155.31591797 91.60839844 C-155.64316287 89.91670138 -156.05179802 88.24118248 -156.47265625 86.5703125 C-161.19784925 65.23620757 -153.15310774 39.69158972 -141.6875 21.6875 C-125.99345625 -1.50192274 -104.00977677 -14.92271076 -76.90234375 -20.9296875 C-48.46855708 -24.3154847 -22.52496135 -17.66663635 0 0 Z M-82.6875 235.6875 C-83.52552912 236.8414543 -84.31583561 238.03011613 -85.0859375 239.23046875 C-85.56546875 239.97490234 -86.045 240.71933594 -86.5390625 241.48632812 C-87.04179687 242.27458984 -87.54453125 243.06285156 -88.0625 243.875 C-88.5575 244.64392578 -89.0525 245.41285156 -89.5625 246.20507812 C-90.52095858 247.69786455 -91.47270632 249.19498563 -92.41699219 250.69677734 C-93.45496141 252.32314188 -94.5516039 253.91193181 -95.6640625 255.48828125 C-96.00179687 256.21402344 -96.33953125 256.93976563 -96.6875 257.6875 C-96.0275 259.0075 -95.3675 260.3275 -94.6875 261.6875 C-90.3975 260.3675 -86.1075 259.0475 -81.6875 257.6875 C-81.6875 250.4275 -81.6875 243.1675 -81.6875 235.6875 C-82.0175 235.6875 -82.3475 235.6875 -82.6875 235.6875 Z " fill="#010000" transform="translate(245.6875,44.3125)"/>
<path d="M0 0 C1.15113281 -0.01611328 2.30226563 -0.03222656 3.48828125 -0.04882812 C24.17833173 -0.06049106 42.27888175 8.57839969 57.18359375 22.65625 C73.5084434 39.55259362 79.36783792 59.94800572 79.01953125 82.8828125 C78.27704016 103.81155161 67.93518234 121.58131104 53.12890625 135.8359375 C36.48892994 150.32483217 15.76166413 157.02987227 -6.17138672 155.51757812 C-11.06643315 155.03462781 -15.60336206 153.88385942 -20.25 152.3125 C-21.16910156 152.02246094 -22.08820313 151.73242188 -23.03515625 151.43359375 C-34.15391745 147.69606361 -43.43512911 142.00465068 -52.25 134.3125 C-52.86488281 133.79300781 -53.47976562 133.27351562 -54.11328125 132.73828125 C-66.30692245 121.60983169 -75.58910904 102.61790186 -76.35058594 86.13525391 C-77.14132272 61.54919737 -71.81859216 41.08787528 -54.70898438 22.66259766 C-39.9882748 7.54176141 -20.82458879 -0.05752649 0 0 Z " fill="#FCFCFC" transform="translate(183.25,40.6875)"/>
<path d="M0 0 C8.85472987 7.5411161 15.58496291 17.27572591 16.60546875 29.09765625 C17.23856562 42.30883669 13.8732343 53.25196188 4.875 63.25 C-5.3060641 72.50551282 -14.89734552 76.8850498 -28.875 76.75 C-41.57795963 75.79897628 -51.31765022 70.03154691 -59.875 60.75 C-67.18306452 51.08796944 -69.99823061 40.77792778 -68.875 28.75 C-67.20785355 18.59429955 -62.67360137 9.5737762 -54.875 2.75 C-53.988125 1.925 -53.10125 1.1 -52.1875 0.25 C-36.96216673 -12.21426247 -15.53701904 -11.24010315 0 0 Z " fill="#EB1F23" transform="translate(198.875,320.25)"/>
<path d="M0 0 C6.31597107 3.43351448 10.98566099 7.56614098 15.328125 13.265625 C14.77125 13.69230469 14.214375 14.11898438 13.640625 14.55859375 C3.4057002 22.94362505 -3.30600147 34.20896046 -5.671875 47.265625 C-6.56892832 56.63796332 -5.78113234 64.74104827 -2.546875 73.69140625 C-1.671875 76.265625 -1.671875 76.265625 -1.671875 79.265625 C-11.00438273 83.38290782 -21.55608307 83.55243965 -31.1875 80.31640625 C-35.64683708 78.43030299 -39.65501917 75.95072755 -43.671875 73.265625 C-45.0021875 72.399375 -45.0021875 72.399375 -46.359375 71.515625 C-54.85099551 63.25350775 -59.6795604 53.39053489 -60.14233398 41.58178711 C-60.23935085 33.76992471 -59.67083221 27.15479428 -55.671875 20.265625 C-55.24777344 19.50121094 -54.82367188 18.73679687 -54.38671875 17.94921875 C-43.26621717 -0.35779081 -19.98026455 -8.70306002 0 0 Z " fill="#EB1F23" transform="translate(126.671875,298.734375)"/>
<path d="M0 0 C-3.5 3.5 -3.5 3.5 -7 7 C-6.76135558 12.03505052 -6.76135558 12.03505052 -4 16 C-2.0185305 16.33679373 -2.0185305 16.33679373 0.25390625 16.34375 C1.5368457 16.38822266 1.5368457 16.38822266 2.84570312 16.43359375 C4.19051758 16.46646484 4.19051758 16.46646484 5.5625 16.5 C22.93792776 16.93792776 22.93792776 16.93792776 27 21 C19.69261417 29.46524626 9.45896678 36.33563859 -1.859375 37.34375 C-6.51493755 37.21111289 -10.13930194 35.56794978 -14.25 33.5 C-14.98581299 33.14123779 -15.72162598 32.78247559 -16.47973633 32.4128418 C-23.04581099 29.1344501 -29.06543524 25.32455666 -35 21 C-35.69351562 20.54882812 -36.38703125 20.09765625 -37.1015625 19.6328125 C-38.8125 18.4375 -38.8125 18.4375 -41 16 C-41.125 12.625 -41.125 12.625 -40 9 C-39.72349609 8.04287109 -39.72349609 8.04287109 -39.44140625 7.06640625 C-38.5636547 4.87884928 -37.73212925 3.60623514 -36 2 C-25.54253034 -2.41754793 -11.08418967 -0.17478708 0 0 Z " fill="#FAFAFA" transform="translate(405,415)"/>
<path d="M0 0 C4.01071382 0.26299763 7.86589513 0.79079619 11.81640625 1.51953125 C24.45680632 3.76348478 43.09256224 5.95371888 55 0 C58 -0.1875 58 -0.1875 61 0 C63 2 63 2 63.375 4.9375 C63 8 63 8 61.35546875 9.5859375 C46.52709472 18.48788012 20.81319803 15.50607535 4.72265625 11.94921875 C1.93939377 10.97887042 0.11949685 10.04398034 -2 8 C-2.375 4.9375 -2.375 4.9375 -2 2 C-1.34 1.34 -0.68 0.68 0 0 Z " fill="#060505" transform="translate(156,164)"/>
<path d="M0 0 C3.07469523 1.70251719 5.40613254 3.81226508 7 7 C7.53118173 10.79415519 7.85089348 14.46331178 5.953125 17.890625 C3.52414924 20.8339721 1.62709223 22.79841335 -2.20703125 23.2734375 C-9.29132231 23.54958678 -9.29132231 23.54958678 -13.0625 20.625 C-15.98721729 16.66247981 -16.39062682 14.17215743 -16.359375 9.328125 C-15.75455722 5.40995764 -13.83123243 3.69641184 -11 1 C-7.51556578 -0.74221711 -3.80112955 -0.58675154 0 0 Z " fill="#030202" transform="translate(156,120)"/>
<path d="M0 0 C3.07469523 1.70251719 5.40613254 3.81226508 7 7 C7.53118173 10.79415519 7.85089348 14.46331178 5.953125 17.890625 C3.53559013 20.82010844 1.61354552 22.74461869 -2.171875 23.34375 C-8.80748246 23.74590803 -8.80748246 23.74590803 -11.9921875 21.75390625 C-15.022219 18.61514156 -16.39886211 15.80407323 -16.6875 11.4375 C-16.36230674 6.55960116 -14.48076049 4.31500999 -11 1 C-7.51556578 -0.74221711 -3.80112955 -0.58675154 0 0 Z " fill="#020202" transform="translate(222,120)"/>
<path d="M0 0 C16.5715462 -0.43737219 32.75091361 -0.38100742 48 7 C42.87137761 12.12862239 33.96924814 12.3718691 27.0625 12.5 C16.19596689 12.45378675 7.63069129 8.63069129 0 1 C0 0.67 0 0.34 0 0 Z " fill="#F3F3F3" transform="translate(149,410)"/>
</svg>
